<svg xmlns="http://www.w3.org/2000/svg" xmlns:xlink="http://www.w3.org/1999/xlink" aria-hidden="true" role="img" class="nuxt-icon w-full h-full j-s-st logo iconify iconify--icon" preserveAspectRatio="xMinYMin meet" style="" width="3.74em" height="1em" viewBox="0 0 97 26" data-v-23ee025c=""><g fill="none"><path id="iconifyVue34" d="M38.9789 15.7725H37.1765L34.3354 6.24206H36.2209L38.1455 12.9896L40.0149 6.24206H41.7529L43.6052 12.9896L45.5464 6.24206H47.4324L44.5602 15.7725H42.7718L40.8804 9.25681L38.9778 15.7725H38.9789ZM51.2559 15.7725H49.3367V6.24206H51.2559V15.7725ZM51.2559 4.42813H49.3367V2.42676H51.2559V4.42813ZM55.887 15.7725H53.9678V6.24206H55.887V8.2815C56.1959 7.57323 56.6142 7.02646 57.1435 6.63599C57.6695 6.2484 58.2605 6.05461 58.9152 6.05461V8.1673C58.0267 8.1673 57.3022 8.44357 56.7338 8.99611C56.1685 9.54866 55.887 10.2569 55.887 11.1186V15.7725ZM68.7609 11.7698H62.4266C62.4931 12.4463 62.7886 12.9994 63.3179 13.428C63.8445 13.86 64.496 14.0791 65.2677 14.0791C66.1815 14.0791 66.8722 13.8311 67.3403 13.3322L68.3936 14.5336C67.5607 15.4836 66.441 15.9536 65.0312 15.9409C63.6498 15.9409 62.5328 15.4709 61.6775 14.5336C60.8168 13.6027 60.3878 12.3921 60.3878 10.896C60.3878 9.48233 60.7777 8.31957 61.5552 7.41405C62.3323 6.52121 63.3436 6.07364 64.5829 6.07364C65.8281 6.07364 66.8422 6.53448 67.6278 7.45211C68.4048 8.37667 68.7952 9.57461 68.7952 11.0454C68.7952 11.2103 68.7839 11.4554 68.762 11.7698H68.7609ZM62.4599 10.1335H66.8025C66.7971 9.47887 66.5992 8.94536 66.2148 8.52259C65.8329 8.10616 65.3374 7.8968 64.7299 7.8968C64.1148 7.8968 63.5994 8.10674 63.1871 8.52259C62.7666 8.94536 62.5269 9.47887 62.4599 10.1335ZM72.985 10.4767V15.7725H71.0657V6.24206H72.985V7.27447C73.6199 6.47392 74.4473 6.07364 75.4641 6.07364C76.6894 6.07364 77.5614 6.59446 78.0853 7.63668C78.7427 6.59504 79.6957 6.07364 80.9403 6.07364C81.882 6.07364 82.6338 6.4099 83.1937 7.08068C83.7535 7.75722 84.035 8.64083 84.035 9.73322V15.7725H82.1158V9.74937C82.1158 9.18702 81.9651 8.72965 81.6669 8.38301C81.3634 8.03349 80.9703 7.86219 80.4915 7.86219C79.9263 7.86219 79.4554 8.1004 79.079 8.57681C78.7031 9.05667 78.5164 9.67612 78.5164 10.4386V15.7725H76.5832V9.74937C76.5832 9.19337 76.4358 8.73599 76.143 8.38301C75.8368 8.03349 75.4464 7.86219 74.9756 7.86219C74.4077 7.86219 73.9336 8.10674 73.555 8.59584C73.1737 9.08494 72.9839 9.71419 72.9839 10.4767H72.985ZM88.5744 15.7725H86.6552V6.24206H88.5744V15.7725ZM88.5744 4.42813H86.6552V2.42676H88.5744V4.42813ZM93.9627 3.67199V6.24206H96.584V7.93544H93.9627V12.7578C93.9627 13.1361 94.0657 13.447 94.2689 13.6916C94.4727 13.9361 94.7371 14.0601 95.0658 14.0601C95.4777 14.0601 95.8069 13.9078 96.0515 13.6027L96.9985 14.683C96.503 15.5216 95.7479 15.9409 94.7312 15.9409C93.9515 15.9409 93.3106 15.671 92.8034 15.1312C92.2939 14.5907 92.0376 13.8952 92.0376 13.0473V7.93544H90.5028V6.24206H92.0376V4.52964L93.9622 3.67199H93.9627Z" fill="#022731"></path>
    <g id="iconifyVue35">
        <path id="iconifyVue36" fill-rule="evenodd" clip-rule="evenodd" d="M3.54058 22.1924C-1.17954 17.1157 -1.17954 8.88469 3.54058 3.808C8.2607 -1.26868 15.9136 -1.26868 20.6337 3.808C25.3538 8.88469 25.3538 17.1157 20.6337 22.1924C15.9136 27.2691 8.2607 27.2691 3.54058 22.1924ZM4.23074 21.4501C-0.108103 16.7835 -0.108103 9.21691 4.23074 4.5503C8.56958 -0.116307 15.6047 -0.116307 19.9436 4.5503C24.2824 9.21691 24.2824 16.7835 19.9436 21.4501C15.6047 26.1167 8.56958 26.1167 4.23074 21.4501Z" fill="#17CF17"></path>
        <path id="iconifyVue37" d="M14.0382 9.63718L16.8777 12.6912L19.1803 10.2145L19.1809 18.2368H11.7838L14.0253 15.8259L13.836 15.6217L13.8269 15.6315L8.75339 10.1742L10.0082 8.82394H5.97987V13.2235L7.29638 11.8076L10.8341 15.6119L10.1359 16.3623L7.29638 13.3083L4.99316 15.7855V7.7627H12.3903L10.1487 10.1742L10.338 10.3777L10.3466 10.3679L15.4212 15.8259L14.1658 17.1755H18.1942V12.7759L16.8777 14.1919L13.3405 10.3876L14.0382 9.63718Z" fill="#17CF17"></path>
        <path id="iconifyVue38" fill-rule="evenodd" clip-rule="evenodd" d="M14.5835 0.279821C18.4456 -0.592825 22.6279 0.582622 25.6266 3.80789C30.3467 8.88458 30.3467 17.1156 25.6266 22.1923C22.6279 25.4176 18.4456 26.593 14.5835 25.7198C15.3584 25.545 16.1209 25.2872 16.8578 24.9469C19.775 25.0092 22.7104 23.8441 24.9364 21.45C29.2753 16.7834 29.2753 9.2168 24.9364 4.54961C22.7104 2.15546 19.775 0.989819 16.8578 1.05211C16.1209 0.712395 15.3584 0.454581 14.5835 0.279244V0.279821Z" fill="#17CF17"></path>
    </g>
    <path id="iconifyVue39" d="M35.5458 23.1388C35.2509 23.1388 34.994 23.0615 34.7752 22.9058C34.5564 22.7501 34.41 22.5332 34.335 22.2546L34.7414 22.1347C34.7951 22.3238 34.8948 22.4692 35.0407 22.5718C35.1865 22.6745 35.356 22.7253 35.5501 22.7253C35.7555 22.7253 35.9228 22.6745 36.0526 22.5718C36.1818 22.4692 36.2467 22.3336 36.2467 22.1635C36.2467 22.1064 36.2397 22.0539 36.2242 22.0078C36.2092 21.9611 36.184 21.9213 36.1486 21.8878C36.1126 21.8538 36.0794 21.8255 36.0478 21.8013C36.0167 21.7771 35.9689 21.7528 35.9051 21.7292C35.8408 21.705 35.792 21.6882 35.7576 21.6784C35.7233 21.6692 35.6654 21.6536 35.5834 21.6329C35.5013 21.6121 35.4455 21.5971 35.4161 21.5873C35.3233 21.5614 35.2552 21.5412 35.2107 21.5273C35.1662 21.5129 35.1013 21.4898 35.0165 21.4575C34.9318 21.4258 34.8659 21.3952 34.8197 21.3664C34.7736 21.3376 34.72 21.2978 34.6589 21.2464C34.5983 21.1951 34.5527 21.142 34.5227 21.0878C34.4926 21.033 34.4663 20.9673 34.4422 20.8883C34.4181 20.8098 34.4063 20.7239 34.4063 20.631C34.4063 20.3559 34.5103 20.1264 34.7184 19.9418C34.927 19.7578 35.1844 19.6655 35.4911 19.6655C35.7652 19.6655 35.9952 19.7376 36.1813 19.8818C36.3674 20.026 36.4977 20.2354 36.5722 20.5111L36.1883 20.6258C36.0751 20.2544 35.8445 20.0687 35.496 20.0687C35.2991 20.0687 35.141 20.1246 35.0203 20.2365C34.8996 20.3484 34.8396 20.4817 34.8396 20.6351C34.8396 20.6801 34.8439 20.7216 34.853 20.7597C34.8621 20.7983 34.8771 20.8329 34.898 20.8629C34.9189 20.8935 34.9388 20.9206 34.9581 20.9448C34.9774 20.969 35.0074 20.9921 35.0476 21.0146C35.0879 21.0371 35.12 21.0555 35.1436 21.0694C35.1678 21.0838 35.2064 21.0999 35.26 21.1172C35.3131 21.1351 35.3528 21.1478 35.378 21.1559C35.4032 21.164 35.4472 21.1767 35.5099 21.1945C35.5721 21.2118 35.6155 21.2239 35.6397 21.2309C35.6574 21.2372 35.6858 21.2453 35.7244 21.2545C35.8434 21.2897 35.9351 21.3168 35.999 21.3364C36.0628 21.3554 36.1459 21.3912 36.2467 21.442C36.3481 21.4933 36.4247 21.5469 36.4768 21.6029C36.5288 21.6588 36.576 21.7344 36.6178 21.8284C36.6596 21.923 36.68 22.0308 36.68 22.1525C36.68 22.4507 36.5722 22.6889 36.3566 22.8683C36.1405 23.0477 35.8703 23.1377 35.5458 23.1377V23.1388ZM37.4072 23.0857V19.7232H37.8898L39.0642 22.0049L40.23 19.7232H40.7169V23.0857H40.2928V20.4966L39.2251 22.5378H38.8947L37.8271 20.5013V23.0857H37.4072ZM41.3588 23.0857L42.6362 19.7232H43.0829L44.3871 23.0857H43.927L43.6722 22.4184H42.0688L41.8189 23.0857H41.3588ZM42.2072 22.0003H43.5296L42.8641 20.2469H42.855L42.2072 22.0003ZM47.3515 23.0857H46.8871L46.2575 21.7696H45.4489V23.0857H45.029V19.7232H46.2843C46.5702 19.7232 46.8109 19.8155 47.0077 19.9995C47.2046 20.1835 47.3027 20.4326 47.3027 20.7464C47.3027 20.9869 47.2442 21.1899 47.1263 21.356C47.0088 21.5227 46.8517 21.6392 46.6549 21.7067L47.352 23.0852L47.3515 23.0857ZM45.4489 20.1269V21.3808H46.2441C46.4345 21.3808 46.5889 21.3243 46.7064 21.2101C46.8238 21.0965 46.8828 20.9448 46.8828 20.7562C46.8828 20.567 46.8243 20.4153 46.7064 20.3C46.5889 20.1846 46.4345 20.1269 46.2441 20.1269H45.4489ZM48.8198 23.0857V20.1269H47.7478V19.7232H50.3116V20.1269H49.2396V23.0857H48.8198ZM52.0566 23.0857V19.7232H52.5392L53.7136 22.0049L54.8794 19.7232H55.3664V23.0857H54.9422V20.4966L53.8745 22.5378H53.5442L52.4765 20.5013V23.0857H52.0566ZM58.8306 22.6295C58.527 22.9658 58.1533 23.1336 57.7098 23.1336C57.2663 23.1336 56.892 22.9658 56.5869 22.6295C56.2817 22.2933 56.1289 21.8849 56.1289 21.4045C56.1289 20.924 56.2817 20.5157 56.5869 20.1794C56.892 19.8432 57.2663 19.6753 57.7098 19.6753C58.1538 19.6753 58.527 19.8432 58.8306 20.1794C59.1346 20.5157 59.2864 20.924 59.2864 21.4045C59.2864 21.8849 59.1346 22.2933 58.8306 22.6295ZM56.8834 22.3175C57.1065 22.5672 57.3821 22.6918 57.7093 22.6918C58.0369 22.6918 58.3115 22.5672 58.5335 22.3175C58.755 22.0678 58.866 21.7632 58.866 21.4045C58.866 21.0457 58.755 20.7418 58.5335 20.4915C58.3115 20.2417 58.0369 20.1171 57.7093 20.1171C57.3821 20.1171 57.1065 20.2417 56.8834 20.4915C56.6598 20.7418 56.5483 21.0457 56.5483 21.4045C56.5483 21.7632 56.6598 22.0672 56.8834 22.3175ZM60.0484 23.0857V19.7232H60.5262L62.2015 22.3654V19.7232H62.6214V23.0857H62.1435L60.4683 20.4436V23.0857H60.0484ZM63.5357 23.0857V19.7232H65.6303V20.1269H63.9556V21.2032H65.5943V21.5971H63.9556V22.6826H65.6303V23.0863H63.5357V23.0857ZM67.2905 23.0857V21.7407L66.1558 19.7232H66.6476L67.5007 21.2989L68.3539 19.7232H68.8451L67.7152 21.7361V23.0863H67.2911L67.2905 23.0857ZM71.5811 23.1388C71.2862 23.1388 71.0293 23.0615 70.811 22.9058C70.5922 22.7501 70.4459 22.5332 70.3708 22.2546L70.7773 22.1347C70.8309 22.3238 70.9306 22.4692 71.0765 22.5718C71.2224 22.6745 71.3918 22.7253 71.5859 22.7253C71.7913 22.7253 71.9586 22.6745 72.0884 22.5718C72.2176 22.4692 72.2825 22.3336 72.2825 22.1635C72.2825 22.1064 72.275 22.0539 72.26 22.0078C72.245 21.9611 72.2198 21.9213 72.1844 21.8878C72.1485 21.8538 72.1152 21.8255 72.0836 21.8013C72.0525 21.7771 72.0047 21.7528 71.9404 21.7292C71.8766 21.705 71.8272 21.6882 71.7929 21.6784C71.7586 21.6692 71.7007 21.6536 71.6186 21.6329C71.5366 21.6121 71.4808 21.5971 71.4508 21.5873C71.3586 21.5614 71.2905 21.5412 71.2454 21.5273C71.2009 21.5129 71.136 21.4898 71.0513 21.4575C70.9666 21.4258 70.9006 21.3952 70.8545 21.3664C70.8084 21.3376 70.7547 21.2978 70.6936 21.2464C70.633 21.1951 70.5874 21.142 70.5574 21.0878C70.5274 21.033 70.5011 20.9673 70.477 20.8883C70.4534 20.8098 70.441 20.7239 70.441 20.631C70.441 20.3559 70.5451 20.1264 70.7537 19.9418C70.9623 19.7578 71.2197 19.6655 71.5264 19.6655C71.8004 19.6655 72.0305 19.7376 72.2166 19.8818C72.4026 20.026 72.533 20.2354 72.6075 20.5111L72.2235 20.6258C72.1104 20.2544 71.8798 20.0687 71.5312 20.0687C71.3344 20.0687 71.1762 20.1246 71.0556 20.2365C70.9355 20.3484 70.8749 20.4817 70.8749 20.6351C70.8749 20.6801 70.8791 20.7216 70.8883 20.7597C70.8968 20.7983 70.9119 20.8329 70.9328 20.8629C70.9537 20.8935 70.9741 20.9206 70.9928 20.9448C71.0121 20.969 71.0422 20.9921 71.0824 21.0146C71.1226 21.0371 71.1548 21.0555 71.1784 21.0694C71.202 21.0838 71.2411 21.0999 71.2947 21.1172C71.3478 21.1351 71.3875 21.1478 71.4127 21.1559C71.4379 21.164 71.4819 21.1767 71.5446 21.1945C71.6068 21.2118 71.6503 21.2239 71.6739 21.2309C71.6921 21.2372 71.72 21.2453 71.7591 21.2545C71.8782 21.2897 71.9699 21.3168 72.0337 21.3364C72.0981 21.3554 72.1806 21.3912 72.282 21.442C72.3833 21.4933 72.46 21.5469 72.512 21.6029C72.5641 21.6588 72.6113 21.7344 72.6525 21.8284C72.6944 21.923 72.7153 22.0308 72.7153 22.1525C72.7153 22.4507 72.6075 22.6889 72.3914 22.8683C72.1758 23.0477 71.9055 23.1377 71.5806 23.1377L71.5811 23.1388ZM75.9795 22.6295C75.6754 22.9658 75.3022 23.1336 74.8587 23.1336C74.4152 23.1336 74.0409 22.9658 73.7358 22.6295C73.4306 22.2933 73.2778 21.8849 73.2778 21.4045C73.2778 20.924 73.4306 20.5157 73.7358 20.1794C74.0409 19.8432 74.4152 19.6753 74.8587 19.6753C75.3022 19.6753 75.6759 19.8432 75.9795 20.1794C76.2835 20.5157 76.4353 20.924 76.4353 21.4045C76.4353 21.8849 76.2835 22.2933 75.9795 22.6295ZM74.0323 22.3175C74.2554 22.5672 74.531 22.6918 74.8582 22.6918C75.1858 22.6918 75.4604 22.5672 75.6819 22.3175C75.9039 22.0678 76.0149 21.7632 76.0149 21.4045C76.0149 21.0457 75.9039 20.7418 75.6819 20.4915C75.4598 20.2417 75.1853 20.1171 74.8582 20.1171C74.5305 20.1171 74.2554 20.2417 74.0323 20.4915C73.8087 20.7418 73.6972 21.0457 73.6972 21.4045C73.6972 21.7632 73.8087 22.0672 74.0323 22.3175ZM77.1973 23.0857V19.7232H77.6172V22.6682H79.2699V23.0863H77.1973V23.0857ZM81.1307 23.1336C80.7709 23.1336 80.4685 23.0102 80.2239 22.7639C79.9794 22.5176 79.8577 22.1958 79.8577 21.7984V19.7232H80.2818V21.7171C80.2818 22.002 80.3612 22.2373 80.5189 22.423C80.6765 22.6088 80.8803 22.7016 81.1307 22.7016C81.3812 22.7016 81.5839 22.6088 81.7405 22.423C81.8965 22.2373 81.9748 22.002 81.9748 21.7171V19.7232H82.3947V21.7984C82.3947 22.1958 82.2735 22.5176 82.0306 22.7639C81.7876 23.0102 81.4879 23.1336 81.1307 23.1336ZM84.0817 23.0857V20.1269H83.0098V19.7232H85.5736V20.1269H84.5016V23.0857H84.0817ZM86.2423 23.0857V19.7232H86.6622V23.0857H86.2423ZM90.1312 22.6295C89.8277 22.9658 89.454 23.1336 89.0105 23.1336C88.5665 23.1336 88.1921 22.9658 87.887 22.6295C87.5819 22.2933 87.4291 21.8849 87.4291 21.4045C87.4291 20.924 87.5819 20.5157 87.887 20.1794C88.1921 19.8432 88.5665 19.6753 89.0105 19.6753C89.454 19.6753 89.8277 19.8432 90.1312 20.1794C90.4353 20.5157 90.5871 20.924 90.5871 21.4045C90.5871 21.8849 90.4353 22.2933 90.1312 22.6295ZM88.1841 22.3175C88.4072 22.5672 88.6828 22.6918 89.0105 22.6918C89.3376 22.6918 89.6127 22.5672 89.8342 22.3175C90.0556 22.0678 90.1666 21.7632 90.1666 21.4045C90.1666 21.0457 90.0556 20.7418 89.8342 20.4915C89.6121 20.2417 89.3376 20.1171 89.0105 20.1171C88.6828 20.1171 88.4072 20.2417 88.1841 20.4915C87.9605 20.7418 87.8489 21.0457 87.8489 21.4045C87.8489 21.7632 87.9605 22.0672 88.1841 22.3175ZM91.3496 23.0857V19.7232H91.8274L93.5027 22.3654V19.7232H93.9226V23.0857H93.4448L91.7695 20.4436V23.0857H91.3502H91.3496ZM95.8638 23.1388C95.5689 23.1388 95.312 23.0615 95.0938 22.9058C94.875 22.7501 94.7286 22.5332 94.6535 22.2546L95.06 22.1347C95.1136 22.3238 95.2133 22.4692 95.3592 22.5718C95.5051 22.6745 95.6745 22.7253 95.8686 22.7253C96.074 22.7253 96.2413 22.6745 96.3711 22.5718C96.5003 22.4692 96.5652 22.3336 96.5652 22.1635C96.5652 22.1064 96.5577 22.0539 96.5427 22.0078C96.5277 21.9611 96.5025 21.9213 96.4671 21.8878C96.4312 21.8538 96.3979 21.8255 96.3663 21.8013C96.3352 21.7771 96.2875 21.7528 96.2231 21.7292C96.1593 21.705 96.11 21.6882 96.0756 21.6784C96.0413 21.6692 95.9834 21.6536 95.9014 21.6329C95.8193 21.6121 95.7635 21.5971 95.734 21.5873C95.6413 21.5614 95.5732 21.5412 95.5287 21.5273C95.4841 21.5129 95.4193 21.4898 95.3345 21.4575C95.2498 21.4258 95.1838 21.3952 95.1377 21.3664C95.0916 21.3376 95.038 21.2978 94.9768 21.2464C94.9162 21.1951 94.8707 21.142 94.8406 21.0878C94.8106 21.033 94.7843 20.9673 94.7602 20.8883C94.7366 20.8098 94.7243 20.7239 94.7243 20.631C94.7243 20.3559 94.8283 20.1264 95.0369 19.9418C95.2455 19.7578 95.5029 19.6655 95.8097 19.6655C96.0837 19.6655 96.3137 19.7376 96.4998 19.8818C96.6859 20.026 96.8162 20.2354 96.8907 20.5111L96.5068 20.6258C96.3936 20.2544 96.163 20.0687 95.8145 20.0687C95.6177 20.0687 95.4595 20.1246 95.3388 20.2365C95.2187 20.3484 95.1581 20.4817 95.1581 20.6351C95.1581 20.6801 95.1624 20.7216 95.1715 20.7597C95.1801 20.7983 95.1951 20.8329 95.216 20.8629C95.2369 20.8935 95.2573 20.9206 95.2761 20.9448C95.2954 20.969 95.3254 20.9921 95.3656 21.0146C95.4058 21.0371 95.438 21.0555 95.4616 21.0694C95.4858 21.0838 95.5244 21.0999 95.578 21.1172C95.6311 21.1351 95.6708 21.1478 95.696 21.1559C95.7212 21.164 95.7651 21.1767 95.8279 21.1945C95.8901 21.2118 95.9335 21.2239 95.9571 21.2309C95.9754 21.2372 96.0038 21.2453 96.0424 21.2545C96.1614 21.2897 96.2531 21.3168 96.3169 21.3364C96.3808 21.3554 96.4639 21.3912 96.5647 21.442C96.666 21.4933 96.7427 21.5469 96.7948 21.6029C96.8468 21.6588 96.894 21.7344 96.9358 21.8284C96.9776 21.923 96.998 22.0308 96.998 22.1525C96.998 22.4507 96.8902 22.6889 96.6741 22.8683C96.4585 23.0477 96.1882 23.1377 95.8633 23.1377L95.8638 23.1388Z" fill="#022731"></path></g></svg>